<?xml version="1.0" encoding="utf-8"?>
<!-- Generator: Adobe Illustrator 22.1.0, SVG Export Plug-In . SVG Version: 6.00 Build 0)  -->
<svg version="1.0" id="bell" xmlns="http://www.w3.org/2000/svg" xmlns:xlink="http://www.w3.org/1999/xlink" x="0px" y="0px"
	 viewBox="0 0 66 74" style="enable-background:new 0 0 66 74;" xml:space="preserve">
<style type="text/css">
	.st0{fill:#FFD44A;}
	.st1{opacity:7.000000e-02;}
	.st2{fill:#F2C351;}
</style>
<g id="hole">
	<path class="st0" d="M33,5c1.7,0,3,1.3,3,3s-1.3,3-3,3s-3-1.3-3-3S31.3,5,33,5 M33,3c-2.8,0-5,2.2-5,5c0,2.8,2.2,5,5,5s5-2.2,5-5
		C38,5.2,35.8,3,33,3L33,3z"/>
</g>
<g id="rod">
	<circle class="st0" cx="33" cy="65" r="6"/>
</g>
<g id="cylinder">
	<g id="head">
		<path class="st0" d="M55,24.8v26.1c0,0.4,0,0.7,0,1.1H11c0-0.3,0-0.5,0-0.8V24.8C11,15.5,18.5,8,27.8,8h10.5
			C47.5,8,55,15.5,55,24.8z"/>
	</g>
	<path id="shadow" class="st1" d="M55,24.8v26.1c0,0.4,0,0.7,0,1.1H33V8h5.3C47.5,8,55,15.5,55,24.8z"/>
</g>
<g id="ring_2_">
	<path class="st2" d="M62,55.3v6.4c0,1.8-1.3,3.3-2.9,3.3H6.9C5.3,65,4,63.5,4,61.7v-6.4C4,53.5,5.3,52,6.9,52h52.2
		C60.7,52,62,53.5,62,55.3z"/>
</g>
</svg>
