<?xml version="1.0" encoding="utf-8"?>
<!-- Generator: Adobe Illustrator 22.1.0, SVG Export Plug-In . SVG Version: 6.00 Build 0)  -->
<svg version="1.0" id="heart" xmlns="http://www.w3.org/2000/svg" xmlns:xlink="http://www.w3.org/1999/xlink" x="0px" y="0px"
	 viewBox="0 0 111 98.8" style="enable-background:new 0 0 111 98.8;" xml:space="preserve">
<style type="text/css">
	.st0{fill:#FF4040;}
	.st1{opacity:7.000000e-02;}
</style>
<g id="main">
	<path id="left" class="st0" d="M95.9,55.8L55.6,96.1L10.8,51.4C-0.3,40.2-0.3,22.2,10.8,11c5.6-5.6,12.9-8.3,20.2-8.3
		c7.3,0,14.6,2.8,20.1,8.3l4.5,4.5L95.9,55.8z"/>
	<path id="right" class="st0" d="M108.7,31.2c0,7.3-2.8,14.6-8.3,20.2l-4.5,4.5L55.6,96.1L15.3,55.8l40.3-40.3l4.5-4.5
		c11.1-11.1,29.2-11.1,40.3,0C105.9,16.6,108.7,23.9,108.7,31.2z"/>
</g>
<path id="shadow" class="st1" d="M108.7,31.2c0,7.3-2.8,14.6-8.3,20.2l-4.5,4.5L55.6,96.1V15.5l4.5-4.5c11.1-11.1,29.2-11.1,40.3,0
	C105.9,16.6,108.7,23.9,108.7,31.2z"/>
</svg>
