<svg id="plant" xmlns="http://www.w3.org/2000/svg" width="250" height="447" viewBox="0 0 250 447">
  <defs>
    <style>
      .cls-1 {
        fill: #73bf78;
      }

      .cls-2 {
        fill: #49824a;
      }

      .cls-3 {
        fill: #f9ab80;
      }

      .cls-4 {
        fill: #ba7c5d;
      }

      .cls-5 {
        opacity: 0.1;
      }
    </style>
  </defs>
  <title>plant</title>
  <g id="flower">
    <g id="leaf">
      <path class="cls-1" d="M101.6,127c0-41.77,17.18-80.43,46.4-112V239C118.78,207.43,101.6,168.77,101.6,127Z" transform="translate(-25 -15)"/>
      <path class="cls-2" d="M194.4,127c0,41.77-17.18,80.43-46.4,112V15C177.22,46.57,194.4,85.23,194.4,127Z" transform="translate(-25 -15)"/>
    </g>
    <g id="leaf-2" data-name="leaf">
      <path class="cls-1" d="M154.33,133.32C168.45,94,197.68,63.43,235.85,43.59l-75.7,210.82C143.32,214.82,140.21,172.63,154.33,133.32Z" transform="translate(-25 -15)"/>
      <path class="cls-2" d="M241.67,164.68c-14.12,39.31-43.35,69.89-81.52,89.73l75.7-210.82C252.68,83.18,255.79,125.37,241.67,164.68Z" transform="translate(-25 -15)"/>
    </g>
    <g id="leaf-3" data-name="leaf">
      <path class="cls-1" d="M57.15,163.88c-10.7-40.38-4-82.15,16.18-120.15l57.34,216.54C94.34,237.23,67.84,204.26,57.15,163.88Z" transform="translate(-25 -15)"/>
      <path class="cls-2" d="M146.85,140.12c10.7,40.38,4,82.15-16.18,120.15L73.33,43.73C109.65,66.77,136.16,99.75,146.85,140.12Z" transform="translate(-25 -15)"/>
    </g>
  </g>
  <g id="pot">
    <rect class="cls-3" y="201" width="250" height="45" rx="10.25" ry="10.25"/>
    <path class="cls-3" d="M254,260.64l0,.36-1.39,14L235.9,442.84A21.27,21.27,0,0,1,214.74,462H85.26A21.27,21.27,0,0,1,64.1,442.84L47.43,275,46,261l0-.36Z" transform="translate(-25 -15)"/>
    <polygon class="cls-4" points="228.96 246 227.57 260 22.43 260 21.04 246 228.96 246"/>
    <path class="cls-5" d="M275,226.25v24.5A10.25,10.25,0,0,1,264.75,261H254l-1.39,14L235.9,442.84A21.27,21.27,0,0,1,214.74,462H150V216H264.75A10.25,10.25,0,0,1,275,226.25Z" transform="translate(-25 -15)"/>
  </g>
</svg>
