<?xml version="1.0" encoding="utf-8"?>
<!-- Generator: Adobe Illustrator 22.1.0, SVG Export Plug-In . SVG Version: 6.00 Build 0)  -->
<svg version="1.0" id="strawberry" xmlns="http://www.w3.org/2000/svg" xmlns:xlink="http://www.w3.org/1999/xlink" x="0px" y="0px"
	 viewBox="0 0 53.7 79" style="enable-background:new 0 0 53.7 79;" xml:space="preserve">
<style type="text/css">
	.st0{fill:#8CC63F;}
	.st1{opacity:5.000000e-02;}
	.st2{fill:#FF5C68;}
	.st3{fill:#FFCF4A;}
</style>
<g id="leaves">
	<g id="left_x5F_leaf">
		<ellipse transform="matrix(0.9397 -0.342 0.342 0.9397 -4.5652 8.6593)" class="st0" cx="22.3" cy="17.3" rx="4.5" ry="12.9"/>
		<path class="st1" d="M26.5,15.7c1.7,4.6,1.6,9.4,0.1,13.7L17.9,5.1C21.7,7.5,24.9,11.1,26.5,15.7z"/>
	</g>
	<g id="right_x5F_leaf">
		<ellipse transform="matrix(0.342 -0.9397 0.9397 0.342 4.9505 41.62)" class="st0" cx="32.2" cy="17.3" rx="12.9" ry="4.5"/>
		<path class="st1" d="M36.5,18.8c-1.7,4.6-4.8,8.2-8.7,10.6l8.8-24.3C38.1,9.4,38.1,14.2,36.5,18.8z"/>
	</g>
</g>
<g id="fruit">
	<path id="main" class="st2" d="M49.1,40.2L39,66c-2.2,5.6-7.2,8.3-12.2,8.3c-5,0-10-2.8-12.2-8.3L4.4,40.2
		c-3.4-8.6,3-17.9,12.2-17.9h20.2C46.1,22.3,52.5,31.6,49.1,40.2z"/>
	<g id="seeds_x5F_left">
		<ellipse class="st3" cx="10.8" cy="33.9" rx="1.5" ry="3"/>
		<ellipse class="st3" cx="21.4" cy="33.9" rx="1.5" ry="3"/>
		<ellipse class="st3" cx="13.7" cy="47.4" rx="1.5" ry="3"/>
		<ellipse class="st3" cx="21.4" cy="47.4" rx="1.5" ry="3"/>
		<ellipse class="st3" cx="21.4" cy="61.9" rx="1.5" ry="3"/>
	</g>
	<g id="seeds_x5F_right">
		<ellipse class="st3" cx="42.4" cy="33.9" rx="1.5" ry="3"/>
		<ellipse class="st3" cx="31.9" cy="33.9" rx="1.5" ry="3"/>
		<ellipse class="st3" cx="39.5" cy="47.4" rx="1.5" ry="3"/>
		<ellipse class="st3" cx="31.9" cy="47.4" rx="1.5" ry="3"/>
		<ellipse class="st3" cx="31.9" cy="61.9" rx="1.5" ry="3"/>
	</g>
	<path id="shadow" class="st1" d="M49.1,40.2L39,66c-2.2,5.6-7.2,8.3-12.2,8.3V22.3h10.1C46.1,22.3,52.5,31.6,49.1,40.2z"/>
</g>
</svg>
